<?xml version="1.0" encoding="UTF-8" standalone="no"?>
<!-- Created with Inkscape (http://www.inkscape.org/) -->

<svg
   xmlns:dc="http://purl.org/dc/elements/1.1/"
   xmlns:cc="http://creativecommons.org/ns#"
   xmlns:rdf="http://www.w3.org/1999/02/22-rdf-syntax-ns#"
   xmlns:svg="http://www.w3.org/2000/svg"
   xmlns="http://www.w3.org/2000/svg"
   xmlns:sodipodi="http://sodipodi.sourceforge.net/DTD/sodipodi-0.dtd"
   xmlns:inkscape="http://www.inkscape.org/namespaces/inkscape"
   version="1.1"
   id="svg3787"
   width="84"
   height="144"
   viewBox="0 0 84 144"
   sodipodi:docname="mongodb.svg"
   inkscape:version="0.92.3 (2405546, 2018-03-11)">
  <metadata
     id="metadata3793">
    <rdf:RDF>
      <cc:Work
         rdf:about="">
        <dc:format>image/svg+xml</dc:format>
        <dc:type
           rdf:resource="http://purl.org/dc/dcmitype/StillImage" />
      </cc:Work>
    </rdf:RDF>
  </metadata>
  <defs
     id="defs3791" />
  <sodipodi:namedview
     pagecolor="#ffffff"
     bordercolor="#666666"
     borderopacity="1"
     objecttolerance="10"
     gridtolerance="10"
     guidetolerance="10"
     inkscape:pageopacity="0"
     inkscape:pageshadow="2"
     inkscape:window-width="1299"
     inkscape:window-height="713"
     id="namedview3789"
     showgrid="false"
     inkscape:zoom="2.6123667"
     inkscape:cx="22.779708"
     inkscape:cy="70.631115"
     inkscape:window-x="67"
     inkscape:window-y="27"
     inkscape:window-maximized="1"
     inkscape:current-layer="svg3787" />
  <path
     style="fill:#000000;stroke-width:0.2706767"
     d="m 42.722996,143.32161 c -0.34072,-0.21506 -0.42778,-1.53989 -0.54135,-8.23854 -0.0996,-5.87229 -0.22478,-8.07155 -0.47369,-8.32004 -0.44039,-0.43965 -0.44039,-2.31579 0,-2.46256 0.26704,-0.089 0.36687,-6.72527 0.47369,-31.48873 l 0.13534,-31.375962 1.15037,-0.08323 1.15038,-0.08323 0.0372,31.481728 c 0.0205,17.314964 0.009,35.562194 -0.0267,40.549414 -0.0617,8.75593 -0.0832,9.08859 -0.62574,9.67669 -0.63082,0.68377 -0.70872,0.70474 -1.27952,0.34447 z"
     id="path3797"
     inkscape:connector-curvature="0" />
  <path
     style="fill:#000000;stroke-width:0.09569866"
     d="m 44.952912,126.29423 c 0,-0.0526 0.0431,-0.0957 0.0957,-0.0957 0.0577,0 0.0957,-0.39874 0.0957,-1.00483 0,-0.55266 -0.0388,-1.00484 -0.0861,-1.00484 -0.0474,0 0.0495,-0.14099 0.21532,-0.31332 0.1658,-0.17232 0.34452,-0.3889 0.39715,-0.48128 0.0716,-0.12572 0.29744,-0.19064 0.89781,-0.25812 0.90489,-0.10171 1.21208,-0.25469 1.29813,-0.6465 0.0567,-0.25804 0.0946,-0.27495 0.8405,-0.37482 0.81952,-0.10972 1.12645,-0.30368 1.12645,-0.71182 0,-0.0994 0.0323,-0.18105 0.0718,-0.18135 0.2417,-0.002 1.26218,-0.20541 1.47917,-0.29504 0.16079,-0.0664 0.29822,-0.22576 0.36238,-0.42017 0.0938,-0.28413 0.14792,-0.31911 0.58343,-0.37688 0.65615,-0.087 1.11603,-0.32491 1.2592,-0.6513 0.0666,-0.15189 0.21547,-0.29281 0.33517,-0.31733 0.11842,-0.0242 0.32088,-0.0659 0.44991,-0.0926 0.12903,-0.0267 0.40904,-0.23463 0.62225,-0.46211 0.30013,-0.32021 0.50005,-0.43954 0.88544,-0.5285 0.54394,-0.12556 0.84158,-0.33454 0.84158,-0.59088 0,-0.22792 0.17354,-0.34299 0.62129,-0.41199 0.21013,-0.0324 0.39784,-0.10627 0.41715,-0.1642 0.0426,-0.12771 0.55898,-0.66478 0.6392,-0.66478 0.0315,0 0.29555,-0.10902 0.58687,-0.24227 0.39359,-0.18003 0.55763,-0.31637 0.63852,-0.53066 0.0857,-0.22713 0.1949,-0.31005 0.51399,-0.3904 0.45275,-0.114 0.58254,-0.23195 0.68762,-0.6249 0.0424,-0.1586 0.14786,-0.28133 0.25653,-0.29858 0.41071,-0.0652 0.71621,-0.24578 0.76854,-0.45427 0.0683,-0.27217 0.2969,-0.47758 0.61525,-0.55285 0.13325,-0.0315 0.49885,-0.29991 0.81245,-0.59645 0.31359,-0.29654 0.68145,-0.59671 0.81747,-0.66705 0.13601,-0.0703 0.35862,-0.29611 0.49469,-0.50172 0.13606,-0.20561 0.37367,-0.42614 0.52801,-0.49007 0.15997,-0.0663 0.34747,-0.25641 0.43609,-0.44225 0.0969,-0.20325 0.30228,-0.40092 0.54536,-0.52492 0.21444,-0.1094 0.44169,-0.31559 0.505,-0.45819 0.14019,-0.31576 0.33645,-0.53338 0.60853,-0.67475 0.11272,-0.0586 0.32533,-0.31203 0.47246,-0.56325 0.14713,-0.25121 0.45746,-0.63375 0.68961,-0.85009 0.27014,-0.25173 0.44587,-0.51012 0.48813,-0.71774 0.0494,-0.24273 0.14706,-0.36286 0.38792,-0.47719 0.4031,-0.19134 0.58004,-0.42856 0.58004,-0.77764 0,-0.17598 0.059,-0.28946 0.16747,-0.32189 0.47225,-0.14127 0.63202,-0.29494 0.75788,-0.72896 0.0929,-0.32042 0.20395,-0.48586 0.38536,-0.57419 0.31349,-0.15265 0.69896,-0.8585 0.69896,-1.27991 0,-0.2667 0.0405,-0.32118 0.27717,-0.37317 0.39849,-0.0875 0.56852,-0.32313 0.69758,-0.96659 0.0798,-0.39765 0.1828,-0.62124 0.34532,-0.74927 0.44213,-0.34832 0.5748,-0.552749 0.63973,-0.985734 0.0808,-0.538529 0.13975,-0.697899 0.25834,-0.697899 0.29015,0 0.70523,-0.826989 0.79254,-1.579028 0.0586,-0.50449 0.10567,-0.603234 0.38801,-0.813438 0.42925,-0.319588 0.51328,-0.532461 0.58658,-1.486096 0.0605,-0.78652 0.0706,-0.813324 0.37661,-0.993867 0.39588,-0.233577 0.50842,-0.593063 0.60846,-1.943561 0.0723,-0.976034 0.0902,-1.039511 0.36693,-1.29798 0.44848,-0.418947 0.58924,-1.058282 0.65689,-2.983688 0.0562,-1.600534 0.0696,-1.689583 0.28962,-1.926218 0.39237,-0.42203 0.58133,-1.090991 0.61925,-2.192211 0.0459,-1.33154 0.045,-9.063905 -10e-4,-10.315433 -0.0538,-1.458658 -0.21032,-2.167269 -0.56044,-2.536943 l -0.28998,-0.30619 -0.0616,-2.009672 c -0.0745,-2.43316 -0.15884,-2.893404 -0.61627,-3.364412 -0.32102,-0.330539 -0.33933,-0.385913 -0.37928,-1.147084 l -0.042,-0.79978 h 1.20824 1.20823 v 0.248701 c 0,0.228333 0.47686,0.803984 0.66601,0.803984 0.0394,0 0.10239,0.785926 0.14006,1.746501 0.10007,2.552169 0.18139,3.02824 0.59318,3.472568 0.13809,0.149002 0.29056,0.402961 0.33882,0.564354 0.10542,0.352551 0.13034,16.052702 0.0261,16.461607 -0.0396,0.155203 -0.21155,0.465111 -0.38221,0.688685 -0.23368,0.306139 -0.33496,0.567242 -0.41023,1.057594 -0.1089,0.709409 -0.2028,1.984906 -0.20487,2.782761 -10e-4,0.447177 -0.0281,0.514969 -0.23597,0.594005 -0.42319,0.160896 -0.72232,1.09208 -0.72232,2.248536 0,0.612044 -0.13834,0.911263 -0.42131,0.911263 -0.11422,0 -0.23762,0.192523 -0.39871,0.622041 -0.0395,0.105269 -0.11874,0.598649 -0.17615,1.0964 -0.0967,0.83864 -0.12128,0.908983 -0.33498,0.959265 -0.3732,0.08781 -0.56874,0.461194 -0.65108,1.243273 -0.0637,0.604693 -0.10843,0.731568 -0.28995,0.821934 -0.46211,0.230041 -0.57588,0.424047 -0.70119,1.195712 -0.10297,0.63405 -0.15311,0.76028 -0.30198,0.76028 -0.30861,0 -0.61582,0.40655 -0.69152,0.91517 -0.0577,0.38782 -0.14559,0.54478 -0.4904,0.876 -0.31164,0.29936 -0.436,0.50306 -0.48173,0.78905 -0.0518,0.32409 -0.12335,0.41989 -0.44895,0.6013 -0.30661,0.17082 -0.41873,0.30958 -0.53811,0.66596 -0.0855,0.25527 -0.32871,0.63652 -0.56172,0.88057 -0.29509,0.30907 -0.43035,0.54422 -0.47986,0.83423 -0.0576,0.33746 -0.11591,0.419 -0.35467,0.49599 -0.41014,0.13226 -0.51173,0.23604 -0.61822,0.6315 -0.0751,0.27909 -0.15851,0.37029 -0.40532,0.44342 -0.28855,0.0855 -0.35541,0.1685 -0.64984,0.80671 -0.0356,0.0773 -0.19018,0.20949 -0.34341,0.29386 -0.15324,0.0844 -0.3805,0.33657 -0.50503,0.56046 -0.12452,0.22388 -0.32884,0.45373 -0.45403,0.51077 -0.1252,0.0571 -0.31125,0.24544 -0.41345,0.41866 -0.1022,0.17322 -0.33598,0.41337 -0.5195,0.53368 -0.18353,0.1203 -0.40498,0.33941 -0.4921,0.48691 -0.0871,0.14749 -0.3273,0.37478 -0.53372,0.50509 -0.20641,0.1303 -0.37529,0.27613 -0.37529,0.32407 0,0.11994 -0.47642,0.67655 -0.55691,0.65063 -0.1299,-0.0418 -0.48901,0.28223 -0.58104,0.5243 -0.0632,0.16624 -0.21447,0.28666 -0.45907,0.36548 -0.48104,0.155 -0.57026,0.23464 -0.63706,0.56867 -0.0455,0.22773 -0.12647,0.29932 -0.43103,0.38133 -0.42264,0.11381 -0.56979,0.25427 -0.67381,0.64322 -0.058,0.21677 -0.14051,0.27991 -0.42668,0.32643 -0.38534,0.0626 -0.6287,0.30348 -0.6335,0.62696 -0.003,0.21113 -0.17001,0.32126 -0.4868,0.32126 -0.31867,0 -1.01595,0.39938 -1.17891,0.67524 -0.10602,0.17948 -0.31379,0.3189 -0.63347,0.42508 -0.42269,0.1404 -0.48825,0.19988 -0.58826,0.53368 -0.0994,0.33168 -0.1472,0.37571 -0.40843,0.37603 -0.41757,4.8e-4 -1.30071,0.57966 -1.30071,0.853 0,0.0483 -0.22433,0.13588 -0.49851,0.19468 -0.54756,0.11743 -0.84127,0.32352 -0.84127,0.5903 0,0.20325 -0.27343,0.37133 -0.60406,0.37133 -0.36909,0 -0.89126,0.25804 -1.10863,0.54786 -0.3577,0.4769 -0.39672,0.50483 -0.7055,0.50483 -0.32897,0 -1.21785,0.53766 -1.21817,0.73685 -1.1e-4,0.0642 -0.25849,0.16562 -0.58584,0.23002 -0.48378,0.0952 -0.66009,0.18757 -1.01362,0.53116 -0.23538,0.22877 -0.48649,0.41594 -0.55802,0.41594 -0.0715,0 -0.34107,0.0453 -0.59898,0.10057 -0.39884,0.0855 -0.49657,0.15307 -0.65391,0.45184 -0.17905,0.34001 -0.21155,0.35598 -1.01251,0.49756 -0.72998,0.12902 -0.87623,0.19034 -1.24084,0.52024 -0.22734,0.20569 -0.56406,0.40922 -0.74828,0.45229 -0.46631,0.10902 -1.05268,0.10187 -1.05268,-0.0128 z"
     id="path3823"
     inkscape:connector-curvature="0" />
  <path
     style="fill:#000000;stroke-width:0.09569866"
     d="m 39.891982,126.13505 c -0.75294,-0.1155 -0.86129,-0.14866 -0.86129,-0.2636 0,-0.0695 -0.0863,-0.23602 -0.19177,-0.37012 -0.19109,-0.24292 -0.30104,-0.275 -1.39437,-0.40672 -0.44078,-0.0531 -0.49605,-0.0874 -0.59888,-0.37177 -0.13859,-0.38327 -0.43163,-0.52708 -1.22494,-0.60116 -0.58573,-0.0547 -0.6067,-0.0661 -0.71261,-0.387 -0.12798,-0.38779 -0.43745,-0.54673 -1.26398,-0.6492 -0.51342,-0.0636 -0.56362,-0.0922 -0.68884,-0.39191 -0.14179,-0.33933 -0.35128,-0.46675 -0.91736,-0.55797 -0.22507,-0.0363 -0.41105,-0.14886 -0.5449,-0.3299 -0.23444,-0.3171 -0.92406,-0.67991 -1.29235,-0.67991 -0.196,0 -0.28915,-0.0775 -0.41692,-0.34672 -0.18646,-0.39294 -0.56291,-0.59103 -1.2859,-0.67666 -0.41066,-0.0486 -0.46956,-0.085 -0.52172,-0.32255 -0.0752,-0.34245 -0.2611,-0.4956 -0.75263,-0.62007 -0.29358,-0.0743 -0.40216,-0.15337 -0.42474,-0.30911 -0.0421,-0.29019 -0.41391,-0.55712 -0.97719,-0.70149 -0.3037,-0.0778 -0.53685,-0.20744 -0.6435,-0.35773 -0.32152,-0.45306 -0.50229,-0.58707 -0.87158,-0.64612 -0.33076,-0.0529 -0.38438,-0.10053 -0.4828,-0.42903 -0.0943,-0.31457 -0.16823,-0.38677 -0.49738,-0.48539 -0.29381,-0.088 -0.42959,-0.19998 -0.56541,-0.46622 -0.13172,-0.2582 -0.28964,-0.39273 -0.60022,-0.51134 -0.2318,-0.0885 -0.47429,-0.25687 -0.53887,-0.37409 -0.13469,-0.24452 -0.73273,-0.68444 -1.07086,-0.78774 -0.31892,-0.0974 -0.56431,-0.33163 -0.56431,-0.53856 0,-0.19562 -0.29832,-0.4124 -0.69381,-0.50415 -0.14588,-0.0339 -0.26318,-0.12635 -0.26318,-0.20754 0,-0.0806 -0.0637,-0.26959 -0.14147,-0.42006 -0.10739,-0.20767 -0.2342,-0.28924 -0.52634,-0.3386 -0.34637,-0.0585 -0.38487,-0.0929 -0.38487,-0.34371 0,-0.35688 -0.3046,-0.66148 -0.66148,-0.66148 -0.24988,0 -0.28527,-0.039 -0.34243,-0.37728 -0.0703,-0.41637 -0.15361,-0.51068 -0.56914,-0.64461 -0.21405,-0.069 -0.31339,-0.18743 -0.4164,-0.49647 -0.0791,-0.2372 -0.32649,-0.59707 -0.59538,-0.86596 -0.25305,-0.25305 -0.54788,-0.63216 -0.65517,-0.84246 -0.11998,-0.23519 -0.30727,-0.42885 -0.48657,-0.50311 -0.21708,-0.0899 -0.31681,-0.2147 -0.39059,-0.48869 -0.10166,-0.37756 -0.39415,-0.66205 -0.68066,-0.66205 -0.11566,0 -0.18122,-0.11577 -0.23029,-0.40672 -0.0531,-0.31466 -0.164,-0.49249 -0.49007,-0.78566 -0.31065,-0.2793 -0.45925,-0.50894 -0.56521,-0.87342 -0.15027,-0.51691 -0.32932,-0.73909 -0.68215,-0.84651 -0.16335,-0.0497 -0.2245,-0.1642 -0.27445,-0.51373 -0.0739,-0.51741 -0.32969,-0.98676 -0.67461,-1.23802 -0.16676,-0.12148 -0.27463,-0.33376 -0.35468,-0.69799 -0.0991,-0.45094 -0.16052,-0.54619 -0.44344,-0.68785 -0.41414,-0.207362 -0.44546,-0.269926 -0.52648,-1.051596 -0.0528,-0.509379 -0.12596,-0.716749 -0.35451,-1.004836 -0.15839,-0.199652 -0.34642,-0.396023 -0.41785,-0.436384 -0.0714,-0.04036 -0.15554,-0.277215 -0.18692,-0.526343 -0.13634,-1.082147 -0.34546,-1.589846 -0.71851,-1.74437 -0.25092,-0.103933 -0.26242,-0.14085 -0.32079,-1.029378 -0.0666,-1.014185 -0.32904,-1.721853 -0.69871,-1.884192 -0.23687,-0.104017 -0.32154,-0.53624 -0.32154,-1.641285 0,-1.048216 -0.14228,-1.562299 -0.57848,-2.090163 l -0.37851,-0.458045 v -1.243195 c 0,-1.613009 -0.17316,-4.32184 -0.33736,-5.277579 -0.0833,-0.484622 -0.21868,-0.887103 -0.38101,-1.132397 l -0.25184,-0.380553 0.0378,-2.073507 c 0.0208,-1.14043 0.0632,-2.164062 0.0941,-2.274739 0.0309,-0.110678 0.16804,-0.51979 0.30468,-0.909138 0.32483,-0.9256 0.42733,-1.96281 0.51177,-5.178816 l 0.0696,-2.652636 0.30572,-0.266173 c 0.3903,-0.339814 0.5,-0.755965 0.56208,-2.132298 0.0273,-0.605294 0.072,-1.283558 0.0992,-1.507254 l 0.0496,-0.406719 h 1.52532 c 1.24425,0 1.52531,0.02471 1.52531,0.134095 0,0.07375 -0.14783,0.221316 -0.32851,0.32792 -0.4562,0.269167 -0.52776,0.593841 -0.6195,2.81062 l -0.078,1.885004 -0.29763,0.250442 c -0.1637,0.137744 -0.34552,0.409166 -0.40406,0.603161 -0.23331,0.773292 -0.35543,11.262159 -0.18521,15.907893 0.0819,2.236192 0.15459,2.578556 0.6259,2.949291 0.26505,0.208484 0.26799,0.222928 0.33943,1.66687 0.0847,1.71123 0.1999,2.143517 0.62847,2.357792 0.30019,0.15009 0.3035,0.15966 0.366,1.060593 0.0885,1.275325 0.31616,1.913974 0.68232,1.913974 0.19609,0 0.29215,0.277131 0.35975,1.037884 0.0761,0.856618 0.15761,1.02188 0.57123,1.158388 0.31896,0.105263 0.32244,0.112776 0.38272,0.825866 0.0727,0.859915 0.16972,1.067512 0.57884,1.238457 0.28384,0.118596 0.31945,0.182932 0.42834,0.773851 0.15186,0.824195 0.22718,0.955905 0.62102,1.085885 0.28734,0.0948 0.32958,0.15374 0.38143,0.53206 0.0883,0.64412 0.3094,1.08542 0.63576,1.26884 0.21507,0.12088 0.32228,0.27545 0.39891,0.5751 0.10756,0.42062 0.37309,0.69074 0.67901,0.69074 0.18716,0 0.21815,0.0594 0.30489,0.58408 0.0382,0.23125 0.1939,0.48368 0.47263,0.7664 0.22859,0.23187 0.52517,0.63776 0.65906,0.90199 0.16823,0.33198 0.34087,0.52392 0.55878,0.62122 0.20911,0.0934 0.33926,0.23293 0.38639,0.41427 0.0967,0.37216 0.35358,0.63569 0.6196,0.63569 0.17544,0 0.24127,0.0763 0.3208,0.37164 0.11252,0.41787 0.25414,0.56669 0.63662,0.66898 0.19775,0.0529 0.29548,0.16762 0.39367,0.46221 0.12639,0.37915 0.20864,0.44359 0.81492,0.63841 0.0921,0.0296 0.16747,0.14326 0.16747,0.25257 0,0.25605 0.4119,0.66854 0.66759,0.66854 0.1268,0 0.23508,0.0945 0.30167,0.26318 0.19387,0.49121 0.24503,0.55017 0.57109,0.65813 0.2252,0.0746 0.40026,0.23481 0.56706,0.51905 0.1838,0.31321 0.33666,0.44297 0.64158,0.54461 0.25705,0.0857 0.42398,0.20803 0.46646,0.34187 0.0809,0.25497 0.24848,0.3922 0.79325,0.64963 0.231,0.10916 0.5295,0.32861 0.66334,0.48767 0.41082,0.48823 0.47941,0.53564 0.87061,0.60173 0.31541,0.0533 0.38861,0.10907 0.43796,0.33375 0.0749,0.34097 0.29575,0.53678 0.70323,0.62346 0.21832,0.0464 0.3774,0.16553 0.50102,0.37506 0.20858,0.35351 0.69028,0.61213 1.29441,0.69493 0.35037,0.048 0.4207,0.0924 0.4207,0.26561 0,0.33722 0.20863,0.52727 0.71668,0.65285 0.35914,0.0888 0.50739,0.18065 0.59834,0.37076 0.12102,0.25298 0.82317,0.65519 1.14818,0.65771 0.38016,0.003 0.57074,0.12212 0.68043,0.42547 0.1226,0.33905 0.36494,0.47812 1.01927,0.58491 0.44773,0.0731 0.81343,0.27944 0.81343,0.45902 0,0.23149 0.32876,0.42536 0.89834,0.52976 0.4605,0.0844 0.64502,0.17961 1.01042,0.52141 0.38245,0.35773 0.52573,0.42798 0.99172,0.4862 0.29957,0.0374 0.54468,0.10513 0.54468,0.15046 0,0.0453 0.18639,0.23514 0.41421,0.42182 0.33575,0.27512 0.53739,0.35686 1.06454,0.43151 0.4595,0.0651 0.71933,0.15691 0.88544,0.31296 0.1293,0.12147 0.25597,0.20787 0.2815,0.192 0.0255,-0.0159 0.13263,0.0808 0.23802,0.21474 0.16358,0.20795 0.19416,0.40453 0.20905,1.34367 0.02,1.26488 0.0309,1.24727 -0.7003,1.13509 z"
     id="path3825"
     inkscape:connector-curvature="0" />
  <path
     style="fill:#000000;stroke-width:0.19167492"
     d="m 6.026292,62.845304 c 0,-0.105662 0.0905,-0.192113 0.201,-0.192113 0.35082,0 0.75519,-1.293417 0.75519,-2.41553 0,-0.875004 0.0918,-1.192739 0.4781,-1.653864 0.36247,-0.432741 0.4781,-0.790498 0.4781,-1.47928 0,-0.656296 0.1269,-1.081297 0.45715,-1.530969 0.28021,-0.381537 0.50818,-1.032649 0.58896,-1.682184 0.0785,-0.630868 0.24021,-1.101499 0.39968,-1.162975 0.29443,-0.113499 0.65509,-1.21771 0.65676,-2.010757 6.4e-4,-0.295855 0.16438,-0.613997 0.39555,-0.76845 0.26165,-0.174829 0.43221,-0.554643 0.50656,-1.128077 0.0635,-0.489741 0.30701,-1.099918 0.56172,-1.407556 0.24729,-0.298674 0.44963,-0.791312 0.44963,-1.094745 0,-0.314386 0.19527,-0.763363 0.45395,-1.043764 0.24968,-0.270635 0.51141,-0.852994 0.58163,-1.294136 0.0733,-0.460159 0.28409,-0.912132 0.4946,-1.060254 0.20181,-0.141999 0.42605,-0.579887 0.49831,-0.973081 0.0723,-0.393195 0.33386,-0.905286 0.58135,-1.13798 0.30878,-0.290322 0.44997,-0.636946 0.44997,-1.104646 0,-0.470487 0.0868,-0.681566 0.28013,-0.681566 0.36227,0 0.67607,-0.597168 0.67607,-1.286601 0,-0.376088 0.13057,-0.601804 0.42407,-0.733051 0.28176,-0.126002 0.47554,-0.442323 0.57746,-0.942639 0.0844,-0.414151 0.31399,-0.866 0.51027,-1.004108 0.19628,-0.138109 0.41193,-0.471451 0.47921,-0.740758 0.0673,-0.269306 0.29007,-0.658152 0.49509,-0.8641 0.20501,-0.205949 0.42911,-0.600043 0.49799,-0.875765 0.0689,-0.275724 0.32925,-0.706245 0.57858,-0.956716 0.26172,-0.262913 0.45333,-0.683443 0.45333,-0.994917 0,-0.372048 0.13163,-0.598378 0.42404,-0.729153 0.23323,-0.104301 0.46989,-0.378539 0.52591,-0.60942 0.056,-0.230879 0.2955,-0.642176 0.53215,-0.913993 0.23666,-0.271818 0.43029,-0.656516 0.43029,-0.854885 0,-0.198367 0.21112,-0.499632 0.46916,-0.669476 0.2906,-0.191283 0.51881,-0.574702 0.59963,-1.007451 0.0855,-0.457949 0.25667,-0.731792 0.49678,-0.79487 0.21012,-0.0552 0.41168,-0.324086 0.4727,-0.630584 0.0585,-0.293894 0.26014,-0.574743 0.44805,-0.62411 0.19397,-0.05096 0.39896,-0.351792 0.4742,-0.695919 0.0729,-0.33339 0.3402,-0.742853 0.59401,-0.909915 0.25381,-0.167065 0.46148,-0.46472 0.46148,-0.661456 0,-0.196734 0.20969,-0.495727 0.46599,-0.664424 0.25629,-0.168698 0.5187,-0.547831 0.58313,-0.842516 0.0644,-0.294687 0.32805,-0.720011 0.58582,-0.945165 0.25778,-0.225155 0.46868,-0.582845 0.46868,-0.794867 0,-0.220224 0.12717,-0.385495 0.29662,-0.385495 0.16314,0 0.4142,-0.282719 0.55793,-0.628265 0.14372,-0.345546 0.44053,-0.791198 0.65957,-0.990337 0.21905,-0.199139 0.39827,-0.523713 0.39827,-0.721276 0,-0.206383 0.2034,-0.436892 0.47809,-0.541807 0.29533,-0.112796 0.4781,-0.333123 0.4781,-0.576337 0,-0.243214 0.18277,-0.463541 0.4781,-0.576337 0.26295,-0.100432 0.47809,-0.298847 0.47809,-0.440925 0,-0.142077 0.25817,-0.548814 0.57372,-0.903861 0.31554,-0.355046 0.57371,-0.805009 0.57371,-0.999917 0,-0.201235 0.20661,-0.43329 0.4781,-0.536981 0.29533,-0.112796 0.4781,-0.333122 0.4781,-0.576337 0,-0.243214 0.18277,-0.4635411 0.47809,-0.5763368 0.26295,-0.1004313 0.4781,-0.3095157 0.4781,-0.4646322 0,-0.1551165 0.1593,-0.3949953 0.354,-0.5330639 0.1947,-0.1380686 0.48709,-0.5105895 0.64975,-0.8278244 0.16267,-0.3172347 0.47668,-0.7412734 0.69782,-0.9423084 0.22113,-0.201035 0.40205,-0.5149376 0.40205,-0.6975613 0,-0.1826239 0.1785,-0.3789358 0.39667,-0.4362487 0.21817,-0.057312 0.44061,-0.2729839 0.49431,-0.4792689 0.0537,-0.206285 0.30548,-0.470199 0.55952,-0.5864755 0.25404,-0.1162766 0.46189,-0.3760835 0.46189,-0.5773487 0,-0.2040612 0.16876,-0.4102718 0.38151,-0.4661604 0.20983,-0.055123 0.44121,-0.2597195 0.51417,-0.4546591 0.073,-0.1949396 0.38369,-0.5921746 0.69052,-0.8827444 0.53747,-0.5089921 0.63323,-0.5283089 2.61896,-0.5283089 1.92485,0 2.06796,0.026342 2.16483,0.3984818 0.0571,0.219165 0.28223,0.4453742 0.5004,0.5026871 0.22657,0.05952 0.39667,0.2614008 0.39667,0.4707786 0,0.2085885 0.19478,0.4409677 0.45196,0.5391914 0.24857,0.09494 0.50036,0.3585674 0.55952,0.5858391 0.0592,0.2272717 0.28607,0.4601135 0.50424,0.5174264 0.21816,0.057313 0.39667,0.2514531 0.39667,0.4314226 0,0.1799694 0.2568,0.6161738 0.57068,0.9693429 0.31387,0.3531691 0.61948,0.7965701 0.67912,0.9853356 0.0596,0.1887654 0.26759,0.3939551 0.46211,0.4559773 0.19453,0.062022 0.40691,0.325796 0.47196,0.586164 0.0726,0.2903949 0.25548,0.4733964 0.4732,0.4733964 0.2392,0 0.39134,0.182881 0.4666,0.5608858 0.0663,0.3329484 0.27029,0.6114626 0.502,0.6853396 0.21468,0.06845 0.39033,0.284878 0.39033,0.480954 0,0.196075 0.25818,0.615852 0.57372,0.932837 0.31554,0.316986 0.57372,0.698786 0.57372,0.848446 0,0.14966 0.21514,0.370583 0.47809,0.49094 0.27827,0.127367 0.4781,0.379615 0.4781,0.603513 0,0.25011 0.16725,0.426854 0.47809,0.505227 0.31104,0.07842 0.4781,0.255091 0.4781,0.505602 0,0.360923 0.47602,1.062596 1.4821,2.184657 0.23666,0.26394 0.43029,0.55578 0.43029,0.648533 0,0.09275 0.21737,0.428156 0.48305,0.745343 0.26568,0.317186 0.5723,0.833862 0.68137,1.148167 0.10907,0.314305 0.36501,0.615257 0.56875,0.668781 0.21914,0.05756 0.37045,0.263283 0.37045,0.503646 0,0.246987 0.18748,0.492143 0.4781,0.625159 0.31543,0.144378 0.47809,0.374714 0.47809,0.677007 0,0.251997 0.19363,0.652871 0.43029,0.890829 0.23666,0.23796 0.53601,0.666284 0.66523,0.95183 0.12923,0.285546 0.35631,0.519176 0.50463,0.519176 0.1569,0 0.3223,0.281794 0.39551,0.673847 0.0763,0.408813 0.31037,0.795304 0.595,0.982657 0.26999,0.177709 0.46916,0.493943 0.46916,0.7449 0,0.253171 0.20054,0.568089 0.47809,0.750782 0.29066,0.191313 0.4781,0.495877 0.4781,0.776821 0,0.446121 0.43884,1.065913 0.75471,1.065913 0.0845,0 0.20477,0.25665 0.26722,0.570333 0.0624,0.313683 0.28617,0.743738 0.49714,0.955675 0.21097,0.211937 0.4387,0.605947 0.50607,0.875576 0.0674,0.26963 0.28099,0.575455 0.47473,0.679615 0.19374,0.104159 0.40948,0.495821 0.47942,0.870361 0.0762,0.407773 0.30963,0.801075 0.58195,0.980322 0.30051,0.1978 0.45477,0.48269 0.45477,0.839859 0,0.526043 0.42068,1.144302 0.77861,1.144302 0.0977,0 0.17758,0.263281 0.17758,0.585068 0,0.358327 0.17455,0.760415 0.45039,1.037517 0.24772,0.248847 0.50721,0.737851 0.57666,1.086677 0.0694,0.348828 0.28936,0.811288 0.4887,1.027694 0.19934,0.216402 0.45399,0.739261 0.56588,1.161908 0.11189,0.422647 0.37776,0.877245 0.59081,1.010217 0.25125,0.156807 0.38738,0.446953 0.38738,0.825651 0,0.376036 0.17019,0.742329 0.4781,1.028991 0.26295,0.244811 0.47927,0.651322 0.4807,0.90336 0.004,0.779128 0.21506,1.305292 0.56747,1.417653 0.23728,0.07565 0.36753,0.374866 0.43849,1.007371 0.0638,0.568826 0.23844,1.011581 0.47474,1.203807 0.22902,0.186295 0.42785,0.672868 0.51337,1.256311 0.0768,0.523741 0.30755,1.13415 0.51285,1.356467 0.2053,0.222316 0.44371,0.851845 0.5298,1.398952 0.0909,0.577812 0.32841,1.17853 0.56661,1.433238 0.28651,0.306374 0.41007,0.684579 0.41007,1.25522 0,0.82506 0.24752,1.4959 0.6819,1.848084 0.13032,0.105661 0.27328,0.745286 0.31769,1.421387 0.0617,0.939679 0.17223,1.303695 0.46908,1.545169 0.31055,0.252614 0.40728,0.612485 0.48293,1.796494 l 0.0946,1.4806 h -1.097 -1.09699 l -0.13112,-0.878353 c -0.0721,-0.483095 -0.28581,-1.033744 -0.47486,-1.223665 -0.22386,-0.224885 -0.39174,-0.795524 -0.48136,-1.636232 -0.0947,-0.888516 -0.25415,-1.407988 -0.51146,-1.666475 -0.24993,-0.251063 -0.42405,-0.794454 -0.52529,-1.639254 -0.11054,-0.922365 -0.25743,-1.34818 -0.54384,-1.576471 -0.28136,-0.224271 -0.41866,-0.609577 -0.48526,-1.361696 -0.0701,-0.791532 -0.19267,-1.115489 -0.49956,-1.32019 -0.26919,-0.17955 -0.40758,-0.474447 -0.4093,-0.8722 -0.004,-0.916567 -0.19491,-1.441549 -0.56747,-1.560334 -0.23514,-0.07497 -0.3672,-0.371947 -0.4353,-0.978885 -0.0591,-0.527068 -0.2638,-1.048818 -0.51806,-1.320702 -0.23116,-0.247191 -0.46694,-0.798727 -0.52394,-1.225641 -0.0625,-0.468133 -0.28399,-0.94641 -0.55804,-1.205046 -0.27391,-0.258498 -0.4544,-0.648108 -0.4544,-0.98086 0,-0.342054 -0.18185,-0.721326 -0.47809,-0.997132 -0.28089,-0.261507 -0.4781,-0.657545 -0.4781,-0.960122 0,-0.285876 -0.20195,-0.717882 -0.45391,-0.970991 -0.24964,-0.250787 -0.51125,-0.763076 -0.58135,-1.138419 -0.0701,-0.375341 -0.28456,-0.792992 -0.47659,-0.92811 -0.19203,-0.135121 -0.41143,-0.530509 -0.48754,-0.878641 -0.0761,-0.348134 -0.34585,-0.857845 -0.59941,-1.13269 -0.25356,-0.274846 -0.46102,-0.644927 -0.46102,-0.822404 0,-0.177476 -0.21514,-0.525724 -0.47809,-0.773884 -0.26296,-0.248162 -0.4781,-0.601961 -0.4781,-0.786226 0,-0.590171 -0.22223,-0.942785 -0.59418,-0.942785 -0.24715,0 -0.36284,-0.137141 -0.36462,-0.432253 -0.005,-0.76083 -0.22025,-1.280947 -0.57846,-1.39516 -0.1917,-0.06112 -0.40524,-0.370437 -0.47453,-0.68737 -0.0693,-0.316934 -0.33345,-0.801116 -0.58701,-1.075962 -0.25356,-0.274845 -0.46102,-0.668089 -0.46102,-0.873876 0,-0.21327 -0.16536,-0.4176 -0.38457,-0.475185 -0.21699,-0.057 -0.43306,-0.321232 -0.49586,-0.606378 -0.22614,-1.026757 -0.29414,-1.160507 -0.64714,-1.27306 -0.19832,-0.06323 -0.38755,-0.305391 -0.4205,-0.538135 -0.033,-0.232744 -0.25356,-0.508509 -0.49022,-0.61281 -0.26457,-0.116604 -0.43028,-0.357738 -0.43028,-0.626113 0,-0.240061 -0.25818,-0.707861 -0.57372,-1.039556 -0.31554,-0.331693 -0.57371,-0.716892 -0.57371,-0.855997 0,-0.139104 -0.16523,-0.341745 -0.36717,-0.450313 -0.20193,-0.108569 -0.46669,-0.50037 -0.58834,-0.870668 -0.12166,-0.370301 -0.37644,-0.78251 -0.56619,-0.916023 -0.18975,-0.133513 -0.37729,-0.414745 -0.41677,-0.624961 -0.0395,-0.210216 -0.26489,-0.467548 -0.50094,-0.57185 -0.24693,-0.109116 -0.42917,-0.35954 -0.42917,-0.589764 0,-0.220068 -0.25817,-0.690618 -0.57371,-1.045664 -0.31555,-0.355046 -0.57372,-0.761784 -0.57372,-0.903861 0,-0.142078 -0.21514,-0.340493 -0.47809,-0.440925 -0.29533,-0.112796 -0.4781,-0.333122 -0.4781,-0.576337 0,-0.243214 -0.18277,-0.463541 -0.4781,-0.576337 -0.27469,-0.104914 -0.47809,-0.335424 -0.47809,-0.541806 0,-0.197563 -0.184,-0.523892 -0.40888,-0.725176 -0.22487,-0.201285 -0.52723,-0.646937 -0.6719,-0.990337 -0.14466,-0.343401 -0.38254,-0.624366 -0.52861,-0.624366 -0.14607,0 -0.35558,-0.259351 -0.46558,-0.576336 -0.11,-0.316985 -0.32514,-0.576337 -0.4781,-0.576337 -0.15295,0 -0.36809,-0.259351 -0.47809,-0.576337 -0.11,-0.316985 -0.28833,-0.576336 -0.39628,-0.576336 -0.10795,0 -0.33714,-0.2809647 -0.50931,-0.6243654 -0.29233,-0.5830675 -0.50551,-0.8517931 -1.53227,-1.9314921 -0.22066,-0.2320361 -0.50337,-0.6163976 -0.62825,-0.8541365 -0.12489,-0.237739 -0.35148,-0.4322527 -0.50355,-0.4322527 -0.15206,0 -0.32971,-0.2130283 -0.39476,-0.4733964 -0.065,-0.2603681 -0.27743,-0.5241419 -0.47195,-0.5861641 -0.19453,-0.062022 -0.4042,-0.2726519 -0.46594,-0.4680663 -0.29461,-0.9324705 -2.07694,-0.4872607 -2.69966,0.6743512 -0.1956,0.36486 -0.49936,0.7092059 -0.67502,0.7652131 -0.17566,0.056007 -0.3726,0.3148595 -0.43765,0.5752276 -0.0651,0.2603681 -0.2532,0.4733965 -0.41811,0.4733965 -0.1649,0 -0.39727,0.2593516 -0.51637,0.5763369 -0.11911,0.3169854 -0.32375,0.5763369 -0.45476,0.5763369 -0.13101,0 -0.33985,0.1945137 -0.46409,0.4322527 -0.12423,0.237739 -0.34301,0.5017267 -0.48617,0.5866394 -0.14316,0.084913 -0.43568,0.4997646 -0.65005,0.9218932 -0.21438,0.422129 -0.50721,0.812776 -0.65073,0.868104 -0.14353,0.05533 -0.31196,0.304706 -0.37429,0.554173 -0.0623,0.249466 -0.27668,0.50566 -0.47634,0.56932 -0.19966,0.06366 -0.4148,0.323011 -0.4781,0.576337 -0.0633,0.253326 -0.28699,0.515405 -0.4971,0.582398 -0.21012,0.06699 -0.38204,0.240321 -0.38204,0.385172 0,0.144851 -0.25817,0.54732 -0.57371,0.894374 -0.31555,0.347054 -0.57372,0.786783 -0.57372,0.977173 0,0.192474 -0.21227,0.427238 -0.47809,0.528768 -0.29533,0.112796 -0.4781,0.333122 -0.4781,0.576337 0,0.243214 -0.18277,0.463541 -0.4781,0.576337 -0.26295,0.100431 -0.48159,0.336031 -0.48586,0.523554 -0.004,0.187523 -0.26245,0.640262 -0.57372,1.006088 -0.31127,0.365824 -0.56594,0.813864 -0.56594,0.995643 0,0.181779 -0.16772,0.38398 -0.3727,0.449337 -0.20498,0.06535 -0.4308,0.30892 -0.50183,0.541254 -0.071,0.232335 -0.29403,0.580329 -0.49558,0.773319 -0.20155,0.192992 -0.41812,0.610395 -0.48126,0.927561 -0.0729,0.365949 -0.27969,0.63964 -0.56601,0.748998 -0.24816,0.09478 -0.4512,0.315844 -0.4512,0.491252 0,0.175406 -0.21678,0.520739 -0.48173,0.767408 -0.26494,0.246666 -0.53235,0.702787 -0.59423,1.013602 -0.0661,0.331844 -0.26244,0.604506 -0.47573,0.660538 -0.21862,0.05743 -0.41031,0.3319 -0.48149,0.689408 -0.0651,0.326695 -0.22277,0.59399 -0.35051,0.59399 -0.26403,0 -0.67613,0.806361 -0.67613,1.322989 0,0.189392 -0.21514,0.442821 -0.47809,0.563179 -0.2714,0.124222 -0.4781,0.380354 -0.4781,0.592435 0,0.205481 -0.20956,0.623783 -0.46568,0.929559 -0.25612,0.305775 -0.52362,0.787886 -0.59445,1.071356 -0.0708,0.283471 -0.23471,0.515402 -0.36419,0.515402 -0.25734,0 -0.6793,0.797453 -0.6793,1.283768 0,0.167819 -0.21515,0.505426 -0.4781,0.750237 -0.29727,0.276757 -0.4781,0.654901 -0.4781,0.999783 0,0.405221 -0.12882,0.613634 -0.47809,0.773504 -0.28779,0.131722 -0.4781,0.378514 -0.4781,0.61999 0,0.220639 -0.21514,0.684518 -0.4781,1.030843 -0.26295,0.346325 -0.47809,0.756013 -0.47809,0.91042 0,0.154407 -0.21412,0.572289 -0.47583,0.928628 -0.2617,0.356338 -0.52945,0.935063 -0.59499,1.286052 -0.0656,0.350992 -0.19345,0.638166 -0.28422,0.638166 -0.22961,0 -0.74859,1.052271 -0.74859,1.517812 0,0.21132 -0.11652,0.453352 -0.25894,0.53785 -0.37416,0.221991 -0.69725,0.914721 -0.69725,1.49496 0,0.288786 -0.20311,0.691178 -0.4781,0.947193 -0.26295,0.24481 -0.47927,0.651322 -0.4807,0.90336 -0.004,0.7497 -0.21604,1.322756 -0.4888,1.322756 -0.23231,0 -0.65235,1.083057 -0.65496,1.688762 -5.9e-4,0.136356 -0.18528,0.498223 -0.41043,0.804153 -0.23869,0.324311 -0.44796,0.95965 -0.50192,1.523768 -0.0673,0.703425 -0.18481,0.996953 -0.43055,1.075304 -0.39646,0.126406 -0.56432,0.648746 -0.56794,1.767297 -0.002,0.603205 -0.12367,0.92936 -0.4807,1.288025 -0.39191,0.393699 -0.4781,0.667276 -0.4781,1.517577 0,0.825581 -0.0927,1.137768 -0.45413,1.529548 -0.35804,0.388106 -0.48288,0.8005 -0.59003,1.949178 l -0.1359,1.456924 h -1.5136 c -0.88156,0 -1.51359,-0.08022 -1.51359,-0.192112 z"
     id="path3827"
     inkscape:connector-curvature="0" />
</svg>
